<?xml version="1.0" standalone="no"?>
<!DOCTYPE svg PUBLIC "-//W3C//DTD SVG 20010904//EN"
 "http://www.w3.org/TR/2001/REC-SVG-20010904/DTD/svg10.dtd">
<svg version="1.0" xmlns="http://www.w3.org/2000/svg"
 width="1112.000000pt" height="1112.000000pt" viewBox="0 0 1112.000000 1112.000000"
 preserveAspectRatio="xMidYMid meet">
<metadata>
Created by potrace 1.14, written by Peter Selinger 2001-2017
</metadata>
<g transform="translate(0.000000,1112.000000) scale(0.100000,-0.100000)"
fill="#000000" stroke="none">
<path d="M4040 9970 l0 -150 -755 0 -755 0 -2 -202 -3 -203 -637 -3 -638 -2 0
-370 0 -370 -392 -2 -393 -3 -3 -412 -2 -413 -230 0 -230 0 0 -1135 0 -1135
230 0 230 0 2 -492 3 -493 473 -3 472 -2 0 -215 0 -215 570 0 570 0 0 -210 0
-210 1060 0 1060 0 0 -205 0 -205 525 0 525 0 0 -530 0 -530 440 0 440 0 0
-225 0 -225 278 -2 277 -3 3 -403 2 -402 1135 0 1135 0 0 770 0 770 320 0 320
0 0 415 0 415 285 0 285 0 2 818 3 817 238 3 237 2 0 1130 0 1130 -272 2 -273
3 -3 573 -2 572 -390 0 -390 0 -2 263 -3 262 -482 3 -483 2 -2 373 -3 372
-537 3 -538 2 0 140 0 140 -715 0 -715 0 0 70 0 70 -1135 0 -1135 0 0 -150z
m2118 -982 l-3 -983 -255 0 -255 0 -3 187 -2 188 -423 2 -422 3 -3 718 -2 717
-300 0 -300 0 0 75 0 75 985 0 985 0 -2 -982z m1432 -23 l0 -865 -275 0 -275
0 -2 273 -3 272 -362 3 -363 2 0 590 0 590 640 0 640 0 0 -865z m-2950 60 l0
-645 -560 0 -560 0 0 515 0 515 -420 0 -420 0 0 130 0 130 980 0 980 0 0 -645z
m4020 -465 l0 -980 -105 0 -105 0 0 260 0 260 -352 2 -353 3 -3 718 -2 717
460 0 460 0 0 -980z m-5290 -280 l0 -980 -320 0 -320 0 0 685 0 685 -665 0
-665 0 0 288 c0 159 3 292 7 295 3 4 447 7 985 7 l978 0 0 -980z m6260 -465
l0 -985 -587 2 -588 3 -3 298 -2 297 185 0 185 0 0 685 0 685 405 0 405 0 0
-985z m790 -525 l0 -980 -980 0 -980 0 0 185 0 185 663 2 662 3 3 793 2 792
315 0 315 0 0 -980z m-4930 -40 l0 -981 -132 3 -133 3 -3 338 -2 337 -280 0
-280 0 0 405 0 405 -565 0 -565 0 0 235 0 235 980 0 980 0 0 -980z m2810 -280
l0 -980 -980 0 -980 0 0 195 0 195 350 0 350 0 0 785 0 785 630 0 630 0 0
-980z m-6182 298 l2 -418 -827 -2 -828 -3 -3 -562 -2 -563 -155 0 -155 0 0
985 0 985 983 -2 982 -3 3 -417z m2390 10 l2 -328 -775 0 -775 0 0 -265 0
-265 -108 0 -109 0 -7 355 c-4 195 -4 359 -1 365 4 6 145 10 396 10 l389 0 0
230 0 230 493 -2 492 -3 3 -327z m6462 -1138 l0 -980 -985 0 -985 0 2 498 3
497 783 3 782 2 0 473 c0 261 3 477 7 480 3 4 93 7 200 7 l193 0 0 -980z
m-8390 420 l0 -140 -585 0 -585 0 0 -845 0 -845 -395 0 -395 0 0 985 0 985
980 0 980 0 0 -140z m3602 -452 l3 -273 213 -3 212 -2 -2 -498 -3 -497 -690 0
-690 0 0 640 0 640 208 3 207 2 0 130 0 130 270 0 270 0 2 -272z m-2657 -823
l0 -980 -982 -3 -983 -2 0 985 0 985 983 -2 982 -3 0 -980z m4055 -40 l0 -585
110 0 110 0 0 -65 0 -65 -520 0 -520 0 0 650 0 650 410 0 410 0 0 -585z m1270
5 l0 -240 820 0 820 0 0 -745 0 -745 -210 0 -210 0 0 645 0 645 -770 0 -770 0
0 340 0 340 160 0 160 0 0 -240z m-4190 -965 l0 -395 -980 0 -980 0 0 130 0
130 490 0 490 0 0 265 0 265 490 0 490 0 0 -395z m1950 320 l0 -75 -445 0
-445 0 0 -530 0 -530 -450 0 -450 0 0 605 0 605 895 0 895 0 0 -75z m3308
-927 l-3 -983 -242 -3 -243 -2 -2 287 -3 288 -277 3 -278 2 0 400 0 400 -460
0 -460 0 0 295 0 295 985 0 985 0 -2 -982z m-2120 545 l3 -153 -601 0 -600 0
0 -830 0 -830 -365 0 -365 0 0 978 c0 538 3 982 7 985 3 4 437 6 962 5 l956
-3 3 -152z m1480 -2090 l2 -983 -985 0 -985 0 0 978 c0 538 3 982 7 985 3 4
446 6 982 5 l976 -3 3 -982z"/>
</g>
</svg>
